<svg xmlns="http://www.w3.org/2000/svg" xmlns:xlink="http://www.w3.org/1999/xlink" width="1080" height="1080" viewBox="0 0 1080 1080" xml:space="preserve"><desc>Created with Fabric.js 5.2.4</desc><defs></defs><g transform="matrix(1 0 0 1 540 540)" id="78c45d3d-0a37-442a-907f-323dcff3d065"><rect style="stroke: none; stroke-width: 1; stroke-dasharray: none; stroke-linecap: butt; stroke-dashoffset: 0; stroke-linejoin: miter; stroke-miterlimit: 4; fill: rgb(255,255,255); fill-rule: nonzero; opacity: 1; visibility: hidden;" x="-540" y="-540" rx="0" ry="0" width="1080" height="1080"></rect></g><g transform="matrix(1 0 0 1 540 540)" id="5adde2d6-0cfb-4e6f-a3db-51256f8b20e6"></g><g transform="matrix(15.88 0 0 15.88 540 540)"><g style="">		<g transform="matrix(1 0 0 1 -19.4 -0.18)"><path style="stroke: rgb(24,157,109); stroke-width: 2; stroke-dasharray: none; stroke-linecap: round; stroke-dashoffset: 0; stroke-linejoin: miter; stroke-miterlimit: 4; fill: none; fill-rule: nonzero; opacity: 1;" transform=" translate(-14.6, -33.82)" d="M 19.8371 13.9828 C 16.6046 16.1853 13.9594 19.1444 12.1319 22.6027 C 10.3043 26.0609 9.3496 29.9135 9.35099 33.825 C 9.35238 37.7365 10.3098 41.5883 12.1398 45.0453 C 13.9699 48.5022 16.6171 51.4595 19.8512 53.6597" stroke-linecap="round"></path></g>		<g transform="matrix(1 0 0 1 19.1 -0.17)"><path style="stroke: rgb(24,157,109); stroke-width: 2; stroke-dasharray: none; stroke-linecap: round; stroke-dashoffset: 0; stroke-linejoin: miter; stroke-miterlimit: 4; fill: none; fill-rule: nonzero; opacity: 1;" transform=" translate(-53.1, -33.83)" d="M 47.8754 13.9899 C 51.1065 16.1941 53.75 19.1545 55.5757 22.6135 C 57.4015 26.0726 58.3541 29.9254 58.3508 33.8367 C 58.3475 37.748 57.3882 41.5993 55.5566 45.0552 C 53.725 48.5111 51.0765 51.467 47.8416 53.6657" stroke-linecap="round"></path></g>		<g transform="matrix(1 0 0 1 -0.14 0.1)"><path style="stroke: none; stroke-width: 1; stroke-dasharray: none; stroke-linecap: butt; stroke-dashoffset: 0; stroke-linejoin: miter; stroke-miterlimit: 4; fill: rgb(24,157,109); fill-rule: nonzero; opacity: 1;" transform=" translate(-33.86, -34.1)" d="M 32.4277 35.5156 L 25.6953 35.5156 L 25.6953 32.668 L 32.4277 32.668 L 32.4277 25.7246 L 35.293 25.7246 L 35.293 32.668 L 42.0254 32.668 L 42.0254 35.5156 L 35.293 35.5156 L 35.293 42.4766 L 32.4277 42.4766 L 32.4277 35.5156 Z" stroke-linecap="round"></path></g></g></g></svg>