<svg width="960" height="586" viewBox="0 0 960 586" fill="none" xmlns="http://www.w3.org/2000/svg">
<path d="M734.813 496.122V566.966L179.242 246.204V175.36L734.813 496.122Z" stroke="#229EFF" stroke-width="0.377953" stroke-linecap="round" stroke-linejoin="round"/>
<path d="M734.813 212.83V283.675L179.242 -37.0866V-107.931L734.813 212.83Z" stroke="#229EFF" stroke-width="0.377953" stroke-linecap="round" stroke-linejoin="round"/>
<path d="M734.813 -70.5455V0.298538L179.242 -320.463V-391.307L734.813 -70.5455Z" stroke="#229EFF" stroke-width="0.377953" stroke-linecap="round" stroke-linejoin="round"/>
<path d="M905.521 -155.9V-85.0558L734.812 0.298512V-70.5456L839.798 -123.038L905.521 -155.9Z" stroke="#229EFF" stroke-width="0.377953" stroke-linecap="round" stroke-linejoin="round"/>
<path d="M905.522 127.476L839.799 160.337L734.813 212.83L179.242 -107.931L349.951 -193.285L905.522 127.476Z" stroke="#229EFF" stroke-width="0.377953" stroke-linecap="round" stroke-linejoin="round"/>
<path d="M905.521 127.477V198.321L734.812 283.675V212.831L839.798 160.338L905.521 127.477Z" stroke="#229EFF" stroke-width="0.377953" stroke-linecap="round" stroke-linejoin="round"/>
<path d="M905.522 410.767L839.799 443.629L734.813 496.122L179.242 175.36L349.951 90.0059L905.522 410.767Z" stroke="#229EFF" stroke-width="0.377953" stroke-linecap="round" stroke-linejoin="round"/>
<path d="M905.521 410.768V481.612L734.812 566.966V496.122L839.798 443.629L905.521 410.768Z" stroke="#229EFF" stroke-width="0.377953" stroke-linecap="round" stroke-linejoin="round"/>
</svg>
