<svg width="165" height="30" viewBox="0 0 165 30" fill="none" xmlns="http://www.w3.org/2000/svg">
<g clip-path="url(#clip0_2251_7478)">
<path fill-rule="evenodd" clip-rule="evenodd" d="M67.2818 23.816H63.0586V3.17538H67.2818V23.816ZM78.8512 16.646H70.916V13.3378H78.8512V16.646ZM93.0256 18.4011C93.0256 17.5968 92.7409 16.9781 92.1778 16.5483C91.6147 16.1218 90.6017 15.6692 89.1325 15.1873C87.6665 14.7119 86.508 14.2397 85.6504 13.7806C83.3236 12.514 82.1585 10.8045 82.1585 8.65545C82.1585 7.54185 82.4724 6.54548 83.097 5.66957C83.7184 4.79367 84.618 4.11314 85.7863 3.61821C86.9546 3.12979 88.2685 2.88232 89.7247 2.88232C91.1907 2.88232 92.4949 3.14933 93.6373 3.68659C94.7861 4.21734 95.6761 4.97276 96.3104 5.94635C96.9414 6.92319 97.2586 8.02702 97.2586 9.26435H93.0354C93.0354 8.32007 92.7376 7.59069 92.1454 7.0632C91.5532 6.54222 90.7215 6.27847 89.6503 6.27847C88.6212 6.27847 87.8186 6.49663 87.2426 6.93621C86.6698 7.37579 86.3882 7.95864 86.3882 8.67824C86.3882 9.34575 86.7248 9.91232 87.3947 10.3682C88.0678 10.8175 89.0548 11.2441 90.3623 11.6413C92.7667 12.3707 94.5175 13.2726 95.6178 14.3504C96.7149 15.4282 97.2618 16.7697 97.2618 18.375C97.2618 20.1594 96.5919 21.5628 95.2457 22.5787C93.9026 23.5946 92.0969 24.1025 89.8251 24.1025C88.2426 24.1025 86.8089 23.8128 85.5112 23.2332C84.2168 22.6536 83.2265 21.8558 82.5436 20.8432C81.864 19.8305 81.5243 18.655 81.5243 17.3265H85.7669C85.7669 19.5993 87.1196 20.739 89.8251 20.739C90.825 20.739 91.6147 20.5371 92.1778 20.1236C92.7409 19.7133 93.0256 19.1369 93.0256 18.4011ZM106.873 24.1058C104.637 24.1058 102.815 23.4155 101.411 22.0349C100.006 20.6576 99.3038 18.8178 99.3038 16.519V16.1218C99.3038 14.5816 99.6016 13.2043 100.194 11.9897C100.786 10.7752 101.621 9.83743 102.708 9.18294C103.796 8.5252 105.032 8.19633 106.42 8.19633C108.508 8.19633 110.148 8.86059 111.346 10.1793C112.543 11.5046 113.139 13.3834 113.139 15.8124V17.4861H103.436C103.566 18.489 103.964 19.2867 104.624 19.8891C105.288 20.4948 106.126 20.7943 107.139 20.7943C108.711 20.7943 109.931 20.2245 110.818 19.0881L112.818 21.3413C112.206 22.2075 111.381 22.888 110.336 23.3732C109.297 23.8616 108.139 24.1025 106.873 24.1025V24.1058ZM106.407 11.5078C105.598 11.5078 104.944 11.7846 104.44 12.3349C103.938 12.8852 103.618 13.6764 103.479 14.7021H109.139V14.3732C109.119 13.4648 108.88 12.7582 108.407 12.26C107.935 11.7618 107.271 11.5111 106.407 11.5111V11.5078ZM119.187 8.48939L119.316 10.2607C120.404 8.88664 121.867 8.19959 123.698 8.19959C125.313 8.19959 126.517 8.67824 127.303 9.63229C128.093 10.5863 128.494 12.0125 128.514 13.9109V23.8193H124.439V13.9923C124.439 13.1261 124.252 12.4912 123.876 12.1004C123.501 11.7097 122.876 11.5111 121.999 11.5111C120.854 11.5111 119.993 12.006 119.423 12.9861V23.8193H115.349V8.49264H119.18L119.187 8.48939ZM136.475 4.71553V8.48939H139.08V11.5078H136.475V19.1532C136.475 19.7198 136.585 20.1268 136.801 20.371C137.018 20.6185 137.433 20.739 138.041 20.739C138.488 20.739 138.889 20.7064 139.238 20.6413V23.7379C138.439 23.9853 137.617 24.1058 136.772 24.1058C133.915 24.1058 132.459 22.6601 132.407 19.7621V11.5078H130.18V8.48939H132.407V4.71553H136.475ZM149.914 12.3153C149.361 12.2437 148.876 12.2046 148.452 12.2046C146.908 12.2046 145.898 12.7256 145.423 13.7773V23.816H141.348V8.48939H145.196L145.306 10.3096C146.125 8.90292 147.258 8.19959 148.701 8.19959C149.154 8.19959 149.575 8.26146 149.97 8.38193L149.911 12.3153H149.914ZM157.814 18.0201L160.633 8.48939H164.998L158.872 26.193L158.532 26.9973C157.623 28.9998 156.118 30.0027 154.028 30.0027C153.435 30.0027 152.834 29.9115 152.225 29.7324V26.6228L152.846 26.6358C153.617 26.6358 154.189 26.5186 154.571 26.2842C154.95 26.0465 155.251 25.6557 155.465 25.1087L155.94 23.8518L150.604 8.4959H154.986L157.817 18.0266L157.814 18.0201Z" fill="white"/>
<path fill-rule="evenodd" clip-rule="evenodd" d="M25.8966 22.7837L7.32092 14.3992L6.16883 13.8782C5.59279 13.6894 4.98115 13.5884 4.34363 13.5884C2.62845 13.5884 1.08156 14.3243 0.00390625 15.4998L10.2205 20.1105L18.3239 23.7671L25.6442 27.0721C27.5729 26.6195 29.4305 25.978 31.1942 25.1705C33.7185 24.0178 36.055 22.52 38.1456 20.7421C39.1908 19.8532 40.1779 18.8927 41.0937 17.8702L37.6213 15.6202L35.7249 14.3927L26.3238 8.30371C26.2105 8.76283 26.1523 9.24148 26.1523 9.73315C26.1523 11.7813 27.1814 13.5852 28.7477 14.6532L28.9872 14.8062L34.5437 18.4042C31.9936 20.3677 29.0681 21.8655 25.8966 22.774V22.7837Z" fill="white"/>
<path fill-rule="evenodd" clip-rule="evenodd" d="M16.9255 12.6769L26.3266 18.7659C26.4398 18.3068 26.4981 17.8281 26.4981 17.3365C26.4981 15.2884 25.469 13.4845 23.9027 12.4165L23.6632 12.2634L18.1067 8.66539C20.6568 6.70194 23.5823 5.20411 26.7538 4.29565L45.3294 12.6802L46.4815 13.2012C47.0576 13.39 47.6692 13.491 48.3067 13.491C50.0219 13.491 51.5688 12.7551 52.6464 11.5796L42.4298 6.96894L34.3264 3.3123L27.0062 0.00732422C25.0774 0.459927 23.2198 1.10139 21.4561 1.90891C18.9319 3.06158 16.5954 4.5594 14.5048 6.33725C13.4595 7.22617 12.4725 8.18673 11.5566 9.20916L15.0291 11.4591L16.9255 12.6867V12.6769Z" fill="white"/>
</g>
<defs>
<clipPath id="clip0_2251_7478">
<rect width="165" height="30" fill="white"/>
</clipPath>
</defs>
</svg>
