<?xml version="1.0" encoding="UTF-8"?>
<!DOCTYPE svg PUBLIC "-//W3C//DTD SVG 1.1//EN" "http://www.w3.org/Graphics/SVG/1.1/DTD/svg11.dtd">
<!-- Creator: CorelDRAW -->
<svg xmlns="http://www.w3.org/2000/svg" xml:space="preserve" width="7.58004in" height="3.87407in" version="1.1" style="shape-rendering:geometricPrecision; text-rendering:geometricPrecision; image-rendering:optimizeQuality; fill-rule:evenodd; clip-rule:evenodd"
viewBox="0 0 2902.82 1483.6"
 xmlns:xlink="http://www.w3.org/1999/xlink"
 xmlns:xodm="http://www.corel.com/coreldraw/odm/2003">
 <defs>
  <style type="text/css">
   <![CDATA[
    .fil0 {fill:white}
   ]]>
  </style>
 </defs>
 <g id="Layer_x0020_1">
  <metadata id="CorelCorpID_0Corel-Layer"/>
  <path class="fil0" d="M1427.74 1248.4l-1024.27 -459.46 -63.55 -28.51c-31.68,-10.28 -65.5,-15.84 -100.6,-15.84 -94.63,0 -179.83,40.36 -239.32,104.81l563.38 252.72 446.84 200.44 403.6 181.04c106.31,-24.84 208.69,-59.94 306.02,-104.18 139.13,-63.24 267.97,-145.17 383.31,-242.6 57.68,-48.72 111.99,-101.32 162.51,-157.39l-191.42 -123.22 -104.55 -67.3 -518.27 -333.6c-6.19,25.08 -9.48,51.31 -9.48,78.31 0,112.2 56.75,211.14 143.1,269.69l13.12 8.44 306.32 197.18c-140.66,107.63 -301.87,189.75 -476.73,239.46z"/>
  <path class="fil0" d="M933.14 694.67l518.27 333.6c6.19,-25.08 9.48,-51.31 9.48,-78.31 0,-112.2 -56.75,-211.14 -143.1,-269.69l-13.12 -8.44 -306.32 -197.17c140.66,-107.63 301.87,-189.75 476.73,-239.46l1024.27 459.46 63.55 28.51c31.68,10.28 65.5,15.84 100.6,15.84 94.63,0 179.83,-40.36 239.32,-104.81l-563.38 -252.72 -446.84 -200.44 -403.6 -181.04c-106.31,24.84 -208.69,59.94 -306.02,104.18 -139.13,63.24 -267.97,145.17 -383.31,242.6 -57.68,48.72 -111.99,101.32 -162.51,157.39l191.42 123.22 104.55 67.3z"/>
 </g>
</svg>
