<svg width="359" height="358" viewBox="0 0 359 358" fill="none" xmlns="http://www.w3.org/2000/svg">
<g clip-path="url(#clip0_571_2686)">
<path d="M246.114 305.191L215.571 314.571L161.832 144.204L160.9 141.26L114.83 155.429L60.5936 172.098L43.9562 119.354L174.786 79.1063L175.712 82.0745L192.374 134.824L246.114 305.191Z" stroke="#229EFF" stroke-width="0.20339" stroke-linecap="round" stroke-linejoin="round"/>
<path d="M161.832 144.204L115.762 158.373L60.5943 172.098L114.83 155.429L160.901 141.261L161.832 144.204Z" stroke="#229EFF" stroke-width="0.20339" stroke-linecap="round" stroke-linejoin="round"/>
<path d="M301.281 291.466L270.738 300.845L215.571 314.571L246.114 305.191L301.281 291.466Z" stroke="#229EFF" stroke-width="0.20339" stroke-linecap="round" stroke-linejoin="round"/>
<path d="M301.281 291.466L246.113 305.191L192.373 134.824L175.711 82.0743L174.785 79.1061L229.952 65.3806L301.281 291.466Z" stroke="#229EFF" stroke-width="0.20339" stroke-linecap="round" stroke-linejoin="round"/>
</g>
<defs>
<clipPath id="clip0_571_2686">
<rect width="300" height="300" fill="white" transform="translate(65.4111) rotate(12.5938)"/>
</clipPath>
</defs>
</svg>
