<svg xmlns="http://www.w3.org/2000/svg" viewBox="0 0 126 32"><path d="M.53,13.9q0-4.34,0-8.67c0-.41.09-.57.53-.57,2.85,0,5.7-.09,8.54.06,3.42.18,6.28,1.56,8,4.71,1.93,3.58,1.34,9-2.37,11.68A9.54,9.54,0,0,1,9.93,23c-3,.1-6,.07-9,.11-.43,0-.39-.24-.39-.51Zm3.32,0v6c0,.2-.05.44.28.43a50.64,50.64,0,0,0,5.65-.11c5.71-.72,6.55-6.7,4.46-9.9-1.31-2-3.34-2.69-5.62-2.78-1.4,0-2.8,0-4.2,0-.44,0-.59.12-.58.57C3.86,10,3.85,11.91,3.85,13.86Z" style="fill:#fff"/><path d="M89.06,26.54l1.41-2.36c.89.4,1.72.86,2.6,1.16a7.3,7.3,0,0,0,4,.17A3.18,3.18,0,0,0,99.6,22.7a18.83,18.83,0,0,0,.15-2c-.21.15-.31.2-.39.27a6,6,0,0,1-4.75,1.45,9.18,9.18,0,0,1-1.81-.34,5,5,0,0,1-3.43-4.22,9.76,9.76,0,0,1-.11-1.71c0-2.21,0-4.42,0-6.64,0-.38.11-.51.5-.5q1.11,0,2.22,0c.39,0,.53.1.52.52,0,2.19,0,4.39,0,6.59a4.78,4.78,0,0,0,.13,1.13,2.89,2.89,0,0,0,2.46,2.34,3.86,3.86,0,0,0,4.06-1.69,4.48,4.48,0,0,0,.58-2.24q0-3.06,0-6.14c0-.39.1-.52.5-.51.78,0,1.56,0,2.34,0,.29,0,.39.09.38.38,0,4.2,0,8.4,0,12.6A6.4,6.4,0,0,1,101,26.69a6.2,6.2,0,0,1-3.64,1.63,12,12,0,0,1-6.2-.7A22.18,22.18,0,0,1,89.06,26.54Z" style="fill:#fff"/><path d="M61.76,10.8c.25-.22.48-.46.74-.67a5.87,5.87,0,0,1,3.44-1.21,7.15,7.15,0,0,1,5.35,1.75,6.78,6.78,0,0,1,2.18,4.5,7.8,7.8,0,0,1-.53,4,6.47,6.47,0,0,1-5.45,4.07,6.38,6.38,0,0,1-4.3-.74c-.45-.27-.85-.62-1.33-1,0,.19,0,.35,0,.51,0,1.92,0,3.83,0,5.75,0,.38-.1.52-.5.5-.76,0-1.53,0-2.29,0-.32,0-.45-.07-.45-.42q0-8.88,0-17.77c0-.27.07-.38.35-.43.77-.14,1.53-.31,2.29-.48.29-.07.42,0,.41.31s0,.87,0,1.31Zm0,5.27c0,.36,0,.73.12,1.09a4.25,4.25,0,0,0,6.8,2.5,4.53,4.53,0,0,0,1.58-4,4.25,4.25,0,1,0-8.5.39Z" style="fill:#fff"/><path d="M30.88,10.77c0-.53,0-.94,0-1.34S31,9,31.29,9h2.43c.3,0,.38.11.38.39q0,6.64,0,13.31c0,.28-.08.4-.38.39-.76,0-1.53,0-2.3,0-.29,0-.39-.11-.38-.39,0-.44,0-.87,0-1.37-.15.06-.21.07-.24.11A5.52,5.52,0,0,1,27,23.26,7,7,0,0,1,20.86,21a7.29,7.29,0,0,1-1.65-5.57A6.45,6.45,0,0,1,23,9.63a7.05,7.05,0,0,1,6.27-.06,8.68,8.68,0,0,1,1.19.82C30.54,10.48,30.65,10.59,30.88,10.77Zm0,5.34c0-.1,0-.2,0-.31a4,4,0,0,0-2.25-3.73,4.19,4.19,0,0,0-4.52.35,4.28,4.28,0,0,0-1.69,4,4.18,4.18,0,0,0,5.62,3.95A4.09,4.09,0,0,0,30.89,16.11Z" style="fill:#fff"/><path d="M53.86,21.39c-.2.19-.4.39-.61.56a6.3,6.3,0,0,1-4.9,1.29,6.75,6.75,0,0,1-4.24-1.95A6.88,6.88,0,0,1,42.18,17a7.68,7.68,0,0,1,1-4.88,6.47,6.47,0,0,1,5.36-3.17,6.28,6.28,0,0,1,3.76.69c.51.3,1,.67,1.51,1.06,0-.43,0-.84,0-1.24s.1-.43.43-.42c.79,0,1.59,0,2.39,0,.31,0,.4.11.4.41q0,6.63,0,13.27c0,.29-.09.42-.4.41-.76,0-1.51,0-2.26,0-.28,0-.4-.09-.39-.38s0-.87,0-1.31Zm-4.26-.86a4.13,4.13,0,0,0,4.28-4.43,4.17,4.17,0,0,0-4.25-4.48,4.13,4.13,0,0,0-4.26,4.49A4.09,4.09,0,0,0,49.6,20.53Z" style="fill:#fff"/><path d="M77.62,3.56v7a1.47,1.47,0,0,0,.25-.12,6.56,6.56,0,0,1,4.69-1.57c3.22.05,5.26,1.86,5.58,5.06.11,1.06.08,2.12.09,3.18,0,1.83,0,3.65,0,5.48,0,.4-.13.51-.51.49-.75,0-1.5,0-2.25,0-.38,0-.47-.13-.47-.48q0-3.63,0-7.25a6.34,6.34,0,0,0-.24-1.56,2.85,2.85,0,0,0-2.83-2.12,6.66,6.66,0,0,0-1.61.15,3.44,3.44,0,0,0-2.61,3,6.32,6.32,0,0,0-.1,1.23c0,2.2,0,4.39,0,6.59,0,.35-.08.5-.46.48-.77,0-1.54,0-2.3,0-.34,0-.48-.08-.46-.44,0-.59,0-1.18,0-1.77q0-8.1,0-16.19c0-.43.14-.58.55-.65C75.8,3.93,76.66,3.74,77.62,3.56Z" style="fill:#fff"/><path d="M122.86,19.08,124.52,21a4.65,4.65,0,0,1-2,1.52,8.78,8.78,0,0,1-8.14-.43,6.42,6.42,0,0,1-3.22-5.37A7.12,7.12,0,0,1,113,11.19a6.83,6.83,0,0,1,4.78-2.25,7.32,7.32,0,0,1,5.13,1.36,6.61,6.61,0,0,1,2.62,5.14c0,.3,0,.46-.41.53-3.3.63-6.6,1.28-9.89,1.93-.16,0-.31.08-.46.12C115.4,20.55,120.09,21.74,122.86,19.08ZM114.31,16l8-1.55a4.1,4.1,0,0,0-8,1.55Z" style="fill:#fff"/><path d="M42.46,20.17c.25.64.49,1.27.75,1.9.12.26,0,.39-.2.52a5.88,5.88,0,0,1-3.58.67,6.44,6.44,0,0,1-1-.17,3.91,3.91,0,0,1-3.06-3.81c0-4.12,0-8.25,0-12.38,0-.12.12-.33.22-.35,1-.22,2-.4,3-.61V8.6c0,.58,0,.58.58.58H41.7c.83,0,.7,0,.71.73,0,.46,0,.91,0,1.37s-.09.44-.42.44c-1,0-2,0-2.92,0-.37,0-.48.11-.47.48,0,2.08,0,4.16,0,6.24,0,1.76,1.13,2.52,2.8,2.14A10.12,10.12,0,0,0,42.46,20.17Z" style="fill:#fff"/><path d="M107.61,6V8.58c0,.6,0,.6.62.6H111c.32,0,.46.08.44.42q0,.84,0,1.68c0,.33-.09.44-.42.44-1,0-1.95,0-2.92,0-.35,0-.47.11-.47.46,0,2.15,0,4.31,0,6.46,0,1.54,1.18,2.35,2.78,1.95a10.55,10.55,0,0,0,1.09-.4c.27.68.55,1.35.79,2,0,.09-.14.34-.27.38a12.08,12.08,0,0,1-2.17.67,5.55,5.55,0,0,1-2.9-.36,3.83,3.83,0,0,1-2.44-3.21,9.45,9.45,0,0,1-.09-1.41q0-5.61,0-11.23c0-.37.11-.52.47-.58C105.75,6.32,106.64,6.13,107.61,6Z" style="fill:#fff"/></svg>