<svg xmlns="http://www.w3.org/2000/svg" viewBox="0 0 145.73 32"><path d="M35,15.14a5.45,5.45,0,0,1-.64.77,6.93,6.93,0,0,1-1.92,1.28c-.35.17-.7.32-1.06.47l-.13.06c0,.2,0,.4-.07.6a19.28,19.28,0,0,1-1.28,5.14,12.22,12.22,0,0,1-2.33,3.68,11.45,11.45,0,0,1-2.51,2,8.63,8.63,0,0,1-2,.86,11.86,11.86,0,0,1-2.37.48,13.42,13.42,0,0,1-7.35-1.25,12.07,12.07,0,0,1-2.59-1.7,4.17,4.17,0,0,1-.41-.43A12.94,12.94,0,0,1,8,23.09a19.32,19.32,0,0,1-1-3.68c-.08-.49-.15-1-.22-1.47a.25.25,0,0,0-.17-.23A17,17,0,0,1,5,16.83a6.57,6.57,0,0,1-2-1.9l-.1-.16L19.06,1.39l.71.61a19.19,19.19,0,0,0,1.94,1.53c.25.16.51.3.77.46a1.06,1.06,0,0,0,.52.13A15.55,15.55,0,0,0,25.16,4a17,17,0,0,1,2.14-.12,5.56,5.56,0,0,1,1.34.19l.15,0a.33.33,0,0,1,.26.27,4,4,0,0,1,.15,1c0,.4,0,.8,0,1.21s-.05,1-.07,1.48a7.08,7.08,0,0,0,.08,1.22.78.78,0,0,0,.15.35,7.74,7.74,0,0,0,.89.92l2.13,1.89a23.33,23.33,0,0,1,1.9,1.82C34.51,14.56,34.74,14.85,35,15.14Z" style="fill:#fff;opacity:0.21"/><path d="M27.28,15.51l.14.08c.21.11.42.24.64.33a4.94,4.94,0,0,0,2.37.35,3.74,3.74,0,0,0,1.9-.68l.53-.38.08-.07,0-.06a1.53,1.53,0,0,0-.38-.62,8,8,0,0,0-1.05-1L29.66,12a10.74,10.74,0,0,1-1.55-1.54,1.2,1.2,0,0,1-.25-.55,14.19,14.19,0,0,1-.17-2.06c0-.66,0-1.32,0-2,0,0,0-.11,0-.18L24.8,5.47l-.67,1.88-4.9-4.11L5.2,14.81l.14.21a3.09,3.09,0,0,0,2.91,1.32A5.24,5.24,0,0,0,9.71,16c.26-.09.52-.2.79-.31a.64.64,0,0,0,0-.09,4.9,4.9,0,0,1-.2-1.08c0-.46,0-.92-.1-1.38A9.32,9.32,0,0,0,10,12.09a1.75,1.75,0,0,0-.31-.76,1,1,0,0,1-.08-.11l.15,0a3.39,3.39,0,0,1,1.76,0,4.81,4.81,0,0,1,1.59.78l.16.11a.75.75,0,0,1,.11-.13c.2-.17.38-.35.59-.5a7.06,7.06,0,0,1,3.85-1.35,10.83,10.83,0,0,1,4.9.86,5.51,5.51,0,0,1,1.5.92l.17.15a4,4,0,0,1,3.63-.83,2,2,0,0,0-.39.78,7.66,7.66,0,0,0-.18,1.43c0,.43-.06.86-.1,1.29a2.43,2.43,0,0,1-.17.79.6.6,0,0,0,0,.44,8.48,8.48,0,0,1,.49,2.38,8.82,8.82,0,0,1-.29,2.94,9,9,0,0,1-4.21,5.41,8.24,8.24,0,0,1-3.87,1.13,8.92,8.92,0,0,1-1.86-.08,8.46,8.46,0,0,1-2.82-.9,8.08,8.08,0,0,1-2.46-2,10.39,10.39,0,0,1-1.61-2.7,8.27,8.27,0,0,1-.64-2.82,7.22,7.22,0,0,1,.19-2c.05-.25.12-.49.18-.74l-1.81.65v.25c0,.35,0,.71,0,1.07a11.41,11.41,0,0,0,.12,1.54A9.79,9.79,0,0,0,9.7,23.34a13.68,13.68,0,0,0,2.1,2.86,9.24,9.24,0,0,0,2.06,1.68,9.43,9.43,0,0,0,4.49,1.24,11.06,11.06,0,0,0,2-.09,14,14,0,0,0,2.86-.68,5.93,5.93,0,0,0,.69-.29,14.28,14.28,0,0,0,1.55-1,11.16,11.16,0,0,0,2.27-2.23,10.07,10.07,0,0,0,1.94-5.08,15,15,0,0,0,.06-2,.25.25,0,0,0-.12-.23l-2.18-1.42A.4.4,0,0,1,27.28,15.51Z"/><path d="M17.69,15.09l-.07,0a2.85,2.85,0,0,0-1.46.65,8,8,0,0,0-.87.88,3.69,3.69,0,0,0-.76,1.22c-.19.51-.38,1-.55,1.54a4.23,4.23,0,0,0-.19,1.87,3.63,3.63,0,0,0,.59,1.52c0,.07.12.13.17.2a.08.08,0,0,0,0-.09c0-.18-.06-.37-.08-.56a4.27,4.27,0,0,1,0-1c.05-.38.11-.76.16-1.14a9.71,9.71,0,0,1,.19-1.1c.17-.62.38-1.23.58-1.83a1.46,1.46,0,0,1,.18-.38,1.28,1.28,0,0,1,.92-.57.36.36,0,0,1,.42.23,1.27,1.27,0,0,1,.06.18c.06.3.13.6.18.89s0,.39,0,.55a1.56,1.56,0,0,0-.26.22c-.15.25-.3.5-.44.76a2.12,2.12,0,0,0-.23,1,.45.45,0,0,0,0,.08,1.56,1.56,0,0,1,.14-.19,5,5,0,0,1,.76-.83A1.34,1.34,0,0,1,17.5,19a.16.16,0,0,1,.2,0l-.33.23a1.92,1.92,0,0,0-.68.76c-.07.13-.14.26-.2.4a2.55,2.55,0,0,0-.18.67,1,1,0,0,0,.35.82c0-.05,0-.08,0-.11s0-.21,0-.31a1.47,1.47,0,0,1,.06-.59,1.36,1.36,0,0,1,.77-.84,3.69,3.69,0,0,1,1.27-.3,5.35,5.35,0,0,1,1.13.05,2.56,2.56,0,0,1,1.09.42,1.15,1.15,0,0,1,.52,1.17c0,.15,0,.3-.08.45s0,.11,0,.17l.17-.14a.9.9,0,0,0,.29-.79A3.06,3.06,0,0,0,21.52,20a1.72,1.72,0,0,0-.63-.73l-.24-.18L20.54,19a1.55,1.55,0,0,1,.7.38,4.16,4.16,0,0,1,.32.39l.12.13a1.2,1.2,0,0,0-.13-.6c-.14-.29-.3-.58-.47-.86a.65.65,0,0,0-.18-.19.21.21,0,0,1-.11-.2,5.36,5.36,0,0,1,.12-1,3.68,3.68,0,0,1,.16-.54.37.37,0,0,1,.48-.23,1.33,1.33,0,0,1,.92.66,2.72,2.72,0,0,1,.19.47c.15.49.32,1,.45,1.47a6.48,6.48,0,0,1,.28,1.9c0,.31,0,.62,0,.94a4.48,4.48,0,0,1-.06.62c0,.23-.14.45-.21.68s-.05.16-.08.24l0,0,.16-.12a3.11,3.11,0,0,0,.7-1.06A4,4,0,0,0,24,19.37c-.17-.53-.36-1-.56-1.56a3.29,3.29,0,0,0-.29-.56,6.62,6.62,0,0,0-1.32-1.47,2.88,2.88,0,0,0-1.38-.67l-.12,0h.34a2.27,2.27,0,0,1,.91.33l.44.25a.29.29,0,0,0,.11,0,5.18,5.18,0,0,1-.24-1.33L21,14l-.85-.35a1.49,1.49,0,0,0-.81-.05,3.29,3.29,0,0,1-.83,0,3.42,3.42,0,0,0-.64,0,2.82,2.82,0,0,0-.8.23L16,14.28l-.16.07a3.34,3.34,0,0,1-.25,1.3,1,1,0,0,0-.07.28.89.89,0,0,0,.3-.18,4,4,0,0,1,.84-.5A1.87,1.87,0,0,1,17.69,15.09Z"/><path d="M22.49,21v.08a1.21,1.21,0,0,1-.35.61c-.24.23-.49.44-.73.66a.9.9,0,0,0-.26.32c-.08.18-.17.36-.26.54a6.29,6.29,0,0,1-.61,1.07,2.18,2.18,0,0,1-.53.52,1,1,0,0,1-1.06.07,2.55,2.55,0,0,1-.47-.34,3.5,3.5,0,0,1-.62-.76c-.24-.38-.45-.78-.68-1.17a2.09,2.09,0,0,0-.22-.28l-.46-.44c-.15-.17-.3-.35-.43-.53a.6.6,0,0,1-.13-.36L15.9,21a.28.28,0,0,0,.2-.13.91.91,0,0,0,.13-.7,1,1,0,0,1,0-.52c0-.13.08-.26.11-.4a.82.82,0,0,0,0-.23l-.22.05c-.41.08-.48,0-.6-.29l-.14-.28a.78.78,0,0,0-.23.4,7,7,0,0,0-.33,1.51,2.51,2.51,0,0,0,0,1.09v0a1.46,1.46,0,0,0,.17.64,5.06,5.06,0,0,0,.24.46,3.21,3.21,0,0,0,.71.89.6.6,0,0,0,.26.14.83.83,0,0,1,.49.35c.24.31.48.61.73.91a2.61,2.61,0,0,0,1.1.78,1.38,1.38,0,0,0,1,0,2.21,2.21,0,0,0,1.15-.86c.11-.15.2-.31.3-.47l.36-.56a.29.29,0,0,1,.22-.15.52.52,0,0,0,.31-.18c.09-.11.18-.21.26-.32A5.22,5.22,0,0,0,22.9,22a3.08,3.08,0,0,0,.26-1.72c-.05-.27-.13-.55-.18-.82a4.47,4.47,0,0,0-.25-.81.63.63,0,0,0-.11-.15c-.07.13-.12.24-.17.34s-.18.26-.42.23l-.4,0c0,.07,0,.12,0,.17a3,3,0,0,1,.12.78,1.92,1.92,0,0,0,.26.84.36.36,0,0,0,.26.19Z"/><path d="M19.19,20c-.27,0-.54,0-.8.08a2.74,2.74,0,0,0-.84.26A1.05,1.05,0,0,0,17,21.46a4.84,4.84,0,0,0,.13.64.76.76,0,0,0,.6.6l.18.05a6.14,6.14,0,0,0,2,.14,3,3,0,0,0,.52-.12.66.66,0,0,0,.38-.25,2.26,2.26,0,0,0,.45-1.19,1,1,0,0,0-.37-.84,2,2,0,0,0-.47-.26A4.07,4.07,0,0,0,19.19,20Z"/><path d="M26.44,15.37a4.31,4.31,0,0,0-.93-.21,4.68,4.68,0,0,0-1,0,3.14,3.14,0,0,0,.2,1.65c.15-.08.28-.14.41-.22L26,16a2.26,2.26,0,0,0,.53-.44,1.32,1.32,0,0,0,.33-.6,3.5,3.5,0,0,0,.07-.45c0-.29,0-.58,0-.86s0-.52,0-.78.12-.67.18-1a.31.31,0,0,0,0-.19l-.06,0-.35.15-.53.24a6.13,6.13,0,0,0-1,.63,1.14,1.14,0,0,0-.29.29,2.26,2.26,0,0,0-.25.87l.23-.06.66-.27a1.58,1.58,0,0,1,1.05-.07.19.19,0,0,1,.1,0c-.25,0-.46,0-.68,0a2.83,2.83,0,0,0-1.26.54.32.32,0,0,0-.1.1.82.82,0,0,0-.13.7A3.29,3.29,0,0,1,26.44,15.37Z"/><path d="M13,14a2.85,2.85,0,0,0-.15-.75,1,1,0,0,0-.31-.47,7.68,7.68,0,0,0-2-1.11l-.1,0c0,.13,0,.24.06.35.05.4.12.8.16,1.19s0,.73,0,1.09a5,5,0,0,0,.06.56,1.46,1.46,0,0,0,.61.92c.42.3.84.58,1.27.87l.19.11.12,0a1.25,1.25,0,0,0,.14-.41,3.12,3.12,0,0,0,.08-1c0-.14,0-.17-.19-.2a3.56,3.56,0,0,0-1.08,0c-.22,0-.43.1-.64.14a.39.39,0,0,1-.15,0,.84.84,0,0,1,.43-.24,6,6,0,0,1,1.11-.17l.48,0v-.14a.75.75,0,0,0-.37-.61c-.19-.11-.39-.21-.59-.31a2.67,2.67,0,0,0-1.17-.3h-.14v0a.42.42,0,0,1,.15,0,4.08,4.08,0,0,1,.61,0,4.17,4.17,0,0,1,1.07.39Z"/><path d="M10.66,11.6l0,0a1.13,1.13,0,0,0,.18.12l.35.14,1.09.49a3,3,0,0,1,1.35,1.36q.21.43.39.87c.15.37.29.75.44,1.12a1.42,1.42,0,0,0,.08.18l.17-.09a2.34,2.34,0,0,0,.7-.8,1,1,0,0,0,.08-.24.31.31,0,0,0-.14-.36,13.27,13.27,0,0,1-1.21-1c-.23-.22-.46-.43-.71-.63a6.35,6.35,0,0,0-1.33-.84A3.16,3.16,0,0,0,10.66,11.6Z"/><path d="M27.07,11.64v0h-.29a3.6,3.6,0,0,0-1.25.36,7.2,7.2,0,0,0-1.77,1.23,13,13,0,0,1-1.24,1.1.35.35,0,0,0-.14.4,1.85,1.85,0,0,0,.73,1.1l.12.05,0,0,.07-.18a11.12,11.12,0,0,1,.85-2,2.88,2.88,0,0,1,1.13-1.14,2.64,2.64,0,0,1,.29-.15c.42-.2.86-.38,1.29-.58Z"/><path d="M19.12,23.76c-.07-.09-.11-.17-.17-.24a.37.37,0,0,0-.38-.12.31.31,0,0,0-.16.31,1,1,0,0,0,.22.55.61.61,0,0,0,1.05-.06,1.47,1.47,0,0,0,.13-.42.37.37,0,0,0,0-.27.19.19,0,0,0-.32-.07l-.11.09Z"/><path d="M23.4,23.25l0,0,.1,0a2.85,2.85,0,0,0,.86-.68,1.53,1.53,0,0,0,.27-.44,1.07,1.07,0,0,0,0-.89s0-.09-.05-.14a2.79,2.79,0,0,0-.11-.35,1.11,1.11,0,0,0-.09-.19.24.24,0,0,0-.05.15l-.06.7a3,3,0,0,1-.81,1.76Z"/><path d="M13.56,20.6h0c-.09.29-.19.58-.28.87a1,1,0,0,0,0,.66,2.1,2.1,0,0,0,1.13,1.12.15.15,0,0,0,.09,0,1.1,1.1,0,0,0-.2-.31,2.76,2.76,0,0,1-.59-1.3c-.05-.25-.06-.51-.09-.77A.72.72,0,0,0,13.56,20.6Z"/><path d="M15.77,17.32l.27,0a2.08,2.08,0,0,1,.25,0l.41.09.1,0a1.79,1.79,0,0,0-.18-.74A.87.87,0,0,0,15.77,17.32Z"/><path d="M22.23,17.32a.82.82,0,0,0-.85-.65,1.51,1.51,0,0,0-.15.74A2.24,2.24,0,0,1,22.23,17.32Z"/><path d="M21.46,18.51a.55.55,0,0,0,.54.37.38.38,0,0,0,.34-.18.9.9,0,0,0,.12-.61l-.45.33A1.1,1.1,0,0,1,21.46,18.51Z"/><path d="M15.55,18.11a1.36,1.36,0,0,0,.09.51.4.4,0,0,0,.53.25.64.64,0,0,0,.4-.39h-.23a.69.69,0,0,1-.55-.2A1.66,1.66,0,0,0,15.55,18.11Z"/><path d="M21.48,17.7a.34.34,0,0,0-.26.23c0,.05,0,.09,0,.12a.66.66,0,0,0,.32.14.73.73,0,0,0,.67-.42l0-.11-.3,0-.07.21c-.07.18-.07.18-.27.16Z"/><path d="M15.72,17.65a.63.63,0,0,0,.44.49A.73.73,0,0,0,16.8,18a.33.33,0,0,0-.3-.32,2.2,2.2,0,0,1-.15.26c-.07.1-.16.09-.23,0a6343452772507.66,6343452772507.66,0,0,1-.12-.28Z"/><path d="M27.28,15.51a.4.4,0,0,0,.13.56l2.18,1.42a.25.25,0,0,1,.12.23,15,15,0,0,1-.06,2,10.07,10.07,0,0,1-1.94,5.08A11.16,11.16,0,0,1,25.44,27a14.28,14.28,0,0,1-1.55,1,5.93,5.93,0,0,1-.69.29,14,14,0,0,1-2.86.68,11.06,11.06,0,0,1-2,.09,9.43,9.43,0,0,1-4.49-1.24A9.24,9.24,0,0,1,11.8,26.2a13.68,13.68,0,0,1-2.1-2.86,9.79,9.79,0,0,1-1.07-3.25,11.41,11.41,0,0,1-.12-1.54c0-.36,0-.72,0-1.07v-.25l1.81-.65c-.06.25-.13.49-.18.74a7.22,7.22,0,0,0-.19,2,8.27,8.27,0,0,0,.64,2.82,10.39,10.39,0,0,0,1.61,2.7,8.08,8.08,0,0,0,2.46,2,8.46,8.46,0,0,0,2.82.9,8.92,8.92,0,0,0,1.86.08,8.24,8.24,0,0,0,3.87-1.13,9,9,0,0,0,4.21-5.41,8.82,8.82,0,0,0,.29-2.94,8.48,8.48,0,0,0-.49-2.38.6.6,0,0,1,0-.44,2.43,2.43,0,0,0,.17-.79c0-.43.07-.86.1-1.29A7.66,7.66,0,0,1,27.66,12a2,2,0,0,1,.39-.78,4,4,0,0,0-3.63.83l-.17-.15a5.51,5.51,0,0,0-1.5-.92,10.83,10.83,0,0,0-4.9-.86A7.06,7.06,0,0,0,14,11.46c-.21.15-.39.33-.59.5a.75.75,0,0,0-.11.13L13.14,12a4.81,4.81,0,0,0-1.59-.78,3.39,3.39,0,0,0-1.76,0l-.15,0a1,1,0,0,0,.08.11,1.75,1.75,0,0,1,.31.76,9.32,9.32,0,0,1,.15,1.06c.05.46.06.92.1,1.38a4.9,4.9,0,0,0,.2,1.08.64.64,0,0,1,0,.09c-.27.11-.53.22-.79.31a5.24,5.24,0,0,1-1.46.33A3.09,3.09,0,0,1,5.34,15l-.14-.21,14-11.57,4.9,4.11.67-1.88,2.87.23c0,.07,0,.13,0,.18,0,.66,0,1.32,0,2a14.19,14.19,0,0,0,.17,2.06,1.2,1.2,0,0,0,.25.55A10.74,10.74,0,0,0,29.66,12l1.83,1.48a8,8,0,0,1,1.05,1,1.53,1.53,0,0,1,.38.62l0,.06-.08.07-.53.38a3.74,3.74,0,0,1-1.9.68,4.94,4.94,0,0,1-2.37-.35c-.22-.09-.43-.22-.64-.33Z" style="fill:#fff"/><path d="M17.69,15.09a1.87,1.87,0,0,0-1,.16,4,4,0,0,0-.84.5.89.89,0,0,1-.3.18,1,1,0,0,1,.07-.28,3.34,3.34,0,0,0,.25-1.3l.16-.07,1.09-.44a2.82,2.82,0,0,1,.8-.23,3.42,3.42,0,0,1,.64,0,3.29,3.29,0,0,0,.83,0,1.49,1.49,0,0,1,.81.05L21,14l.81.36a5.18,5.18,0,0,0,.24,1.33.29.29,0,0,1-.11,0l-.44-.25a2.27,2.27,0,0,0-.91-.33h-.34l.12,0a2.88,2.88,0,0,1,1.38.67,6.62,6.62,0,0,1,1.32,1.47,3.29,3.29,0,0,1,.29.56c.2.52.39,1,.56,1.56a4,4,0,0,1-.05,2.77,3.11,3.11,0,0,1-.7,1.06l-.16.12,0,0c0-.08.05-.16.08-.24s.16-.45.21-.68a4.48,4.48,0,0,0,.06-.62c0-.32,0-.63,0-.94a6.48,6.48,0,0,0-.28-1.9c-.13-.49-.3-1-.45-1.47a2.72,2.72,0,0,0-.19-.47,1.33,1.33,0,0,0-.92-.66.37.37,0,0,0-.48.23,3.68,3.68,0,0,0-.16.54,5.36,5.36,0,0,0-.12,1,.21.21,0,0,0,.11.2.65.65,0,0,1,.18.19c.17.28.33.57.47.86a1.2,1.2,0,0,1,.13.6l-.12-.13a4.16,4.16,0,0,0-.32-.39,1.55,1.55,0,0,0-.7-.38l.11.09.24.18a1.72,1.72,0,0,1,.63.73,3.06,3.06,0,0,1,.33,1.05.9.9,0,0,1-.29.79l-.17.14c0-.06,0-.11,0-.17s.06-.3.08-.45A1.15,1.15,0,0,0,21,20.21a2.56,2.56,0,0,0-1.09-.42,5.35,5.35,0,0,0-1.13-.05,3.69,3.69,0,0,0-1.27.3,1.36,1.36,0,0,0-.77.84,1.47,1.47,0,0,0-.06.59c0,.1,0,.21,0,.31s0,.06,0,.11a1,1,0,0,1-.35-.82,2.55,2.55,0,0,1,.18-.67c.06-.14.13-.27.2-.4a1.92,1.92,0,0,1,.68-.76L17.7,19a.16.16,0,0,0-.2,0,1.34,1.34,0,0,0-.28.18,5,5,0,0,0-.76.83,1.56,1.56,0,0,0-.14.19.45.45,0,0,1,0-.08,2.12,2.12,0,0,1,.23-1c.14-.26.29-.51.44-.76a1.56,1.56,0,0,1,.26-.22c0-.16,0-.36,0-.55s-.12-.59-.18-.89a1.27,1.27,0,0,0-.06-.18.36.36,0,0,0-.42-.23,1.28,1.28,0,0,0-.92.57,1.46,1.46,0,0,0-.18.38c-.2.6-.41,1.21-.58,1.83a9.71,9.71,0,0,0-.19,1.1c-.05.38-.11.76-.16,1.14a4.27,4.27,0,0,0,0,1c0,.19.06.38.08.56a.08.08,0,0,1,0,.09c-.05-.07-.12-.13-.17-.2a3.63,3.63,0,0,1-.59-1.52A4.23,4.23,0,0,1,14,19.4c.17-.52.36-1,.55-1.54a3.69,3.69,0,0,1,.76-1.22,8,8,0,0,1,.87-.88,2.85,2.85,0,0,1,1.46-.65Z" style="fill:#fff"/><path d="M22.49,21,22.31,21a.36.36,0,0,1-.26-.19,1.92,1.92,0,0,1-.26-.84,3,3,0,0,0-.12-.78s0-.1,0-.17l.4,0c.24,0,.31,0,.42-.23s.1-.21.17-.34a.63.63,0,0,1,.11.15,4.47,4.47,0,0,1,.25.81c.05.27.13.55.18.82A3.08,3.08,0,0,1,22.9,22a5.22,5.22,0,0,1-.77,1.2c-.08.11-.17.21-.26.32a.52.52,0,0,1-.31.18.29.29,0,0,0-.22.15l-.36.56c-.1.16-.19.32-.3.47a2.21,2.21,0,0,1-1.15.86,1.38,1.38,0,0,1-1,0,2.61,2.61,0,0,1-1.1-.78c-.25-.3-.49-.6-.73-.91a.83.83,0,0,0-.49-.35.6.6,0,0,1-.26-.14,3.21,3.21,0,0,1-.71-.89,5.06,5.06,0,0,1-.24-.46,1.46,1.46,0,0,1-.17-.64v0a2.51,2.51,0,0,1,0-1.09,7,7,0,0,1,.33-1.51.78.78,0,0,1,.23-.4l.14.28c.12.28.19.37.6.29l.22-.05a.82.82,0,0,1,0,.23c0,.14-.07.27-.11.4a1,1,0,0,0,0,.52.91.91,0,0,1-.13.7.28.28,0,0,1-.2.13l-.22.07a.6.6,0,0,0,.13.36c.13.18.28.36.43.53l.46.44a2.09,2.09,0,0,1,.22.28c.23.39.44.79.68,1.17a3.5,3.5,0,0,0,.62.76,2.55,2.55,0,0,0,.47.34,1,1,0,0,0,1.06-.07,2.18,2.18,0,0,0,.53-.52,6.29,6.29,0,0,0,.61-1.07c.09-.18.18-.36.26-.54a.9.9,0,0,1,.26-.32c.24-.22.49-.43.73-.66a1.21,1.21,0,0,0,.35-.61Z" style="fill:#fff"/><path d="M19.19,20a4.07,4.07,0,0,1,1.15.19,2,2,0,0,1,.47.26,1,1,0,0,1,.37.84,2.26,2.26,0,0,1-.45,1.19.66.66,0,0,1-.38.25,3,3,0,0,1-.52.12,6.14,6.14,0,0,1-2-.14l-.18-.05a.76.76,0,0,1-.6-.6,4.84,4.84,0,0,1-.13-.64,1.05,1.05,0,0,1,.59-1.08,2.74,2.74,0,0,1,.84-.26C18.65,20.08,18.92,20.07,19.19,20Zm-1.06,1.81a.67.67,0,0,0,.49-.34c.11-.24,0-.43-.25-.46a3,3,0,0,0-.83.07.44.44,0,0,0,.22.19.75.75,0,0,1,.3.36Zm2.58-.7,0,0c-.15,0-.31-.05-.47-.06a1.79,1.79,0,0,0-.4,0,.25.25,0,0,0-.22.33.29.29,0,0,0,0,.13.73.73,0,0,0,.39.32.21.21,0,0,0,.08,0s0,0,0,0a.91.91,0,0,1,.46-.57A.87.87,0,0,0,20.71,21.15Z" style="fill:#fff"/><path d="M26.44,15.37a3.29,3.29,0,0,0-1.89-.47.82.82,0,0,1,.13-.7.32.32,0,0,1,.1-.1A2.83,2.83,0,0,1,26,13.56c.22,0,.43,0,.68,0a.19.19,0,0,0-.1,0,1.58,1.58,0,0,0-1.05.07l-.66.27-.23.06a2.26,2.26,0,0,1,.25-.87,1.14,1.14,0,0,1,.29-.29,6.13,6.13,0,0,1,1-.63l.53-.24.35-.15.06,0a.31.31,0,0,1,0,.19c-.06.34-.14.68-.18,1s0,.52,0,.78,0,.57,0,.86a3.5,3.5,0,0,1-.07.45,1.32,1.32,0,0,1-.33.6A2.26,2.26,0,0,1,26,16l-.88.6c-.13.08-.26.14-.41.22a3.14,3.14,0,0,1-.2-1.65,4.68,4.68,0,0,1,1,0A4.31,4.31,0,0,1,26.44,15.37Z" style="fill:#fff"/><path d="M13,14l-.32-.15a4.17,4.17,0,0,0-1.07-.39,4.08,4.08,0,0,0-.61,0,.42.42,0,0,0-.15,0v0H11a2.67,2.67,0,0,1,1.17.3c.2.1.4.2.59.31a.75.75,0,0,1,.37.61v.14l-.48,0a6,6,0,0,0-1.11.17.84.84,0,0,0-.43.24.39.39,0,0,0,.15,0c.21,0,.42-.11.64-.14a3.56,3.56,0,0,1,1.08,0c.15,0,.17.06.19.2a3.12,3.12,0,0,1-.08,1,1.25,1.25,0,0,1-.14.41l-.12,0-.19-.11c-.43-.29-.85-.57-1.27-.87a1.46,1.46,0,0,1-.61-.92,5,5,0,0,1-.06-.56c0-.36,0-.72,0-1.09s-.11-.79-.16-1.19c0-.11,0-.22-.06-.35l.1,0a7.68,7.68,0,0,1,2,1.11,1,1,0,0,1,.31.47A2.85,2.85,0,0,1,13,14Z" style="fill:#fff"/><path d="M10.66,11.6a3.16,3.16,0,0,1,1.42.31,6.35,6.35,0,0,1,1.33.84c.25.2.48.41.71.63a13.27,13.27,0,0,0,1.21,1,.31.31,0,0,1,.14.36,1,1,0,0,1-.08.24,2.34,2.34,0,0,1-.7.8l-.17.09a1.42,1.42,0,0,1-.08-.18c-.15-.37-.29-.75-.44-1.12s-.25-.58-.39-.87a3,3,0,0,0-1.35-1.36l-1.09-.49-.35-.14a1.13,1.13,0,0,1-.18-.12Z" style="fill:#fff"/><path d="M27.07,11.64l-.2.1c-.43.2-.87.38-1.29.58a2.64,2.64,0,0,0-.29.15,2.88,2.88,0,0,0-1.13,1.14,11.12,11.12,0,0,0-.85,2l-.07.18,0,0-.12-.05a1.85,1.85,0,0,1-.73-1.1.35.35,0,0,1,.14-.4,13,13,0,0,0,1.24-1.1A7.2,7.2,0,0,1,25.52,12a3.6,3.6,0,0,1,1.25-.36h.29Z" style="fill:#fff"/><path d="M19.12,23.76l.21-.23.11-.09a.19.19,0,0,1,.32.07.37.37,0,0,1,0,.27,1.47,1.47,0,0,1-.13.42.61.61,0,0,1-1.05.06,1,1,0,0,1-.22-.55.31.31,0,0,1,.16-.31.37.37,0,0,1,.38.12C19,23.59,19.05,23.67,19.12,23.76Z" style="fill:#fff"/><path d="M23.4,23.25l.05-.07a3,3,0,0,0,.81-1.76l.06-.7a.24.24,0,0,1,.05-.15,1.11,1.11,0,0,1,.09.19,2.79,2.79,0,0,1,.11.35c0,.05,0,.1.05.14a1.07,1.07,0,0,1,0,.89,1.53,1.53,0,0,1-.27.44,2.85,2.85,0,0,1-.86.68l-.1,0Z" style="fill:#fff"/><path d="M13.56,20.6a.72.72,0,0,1,.06.29c0,.26,0,.52.09.77A2.76,2.76,0,0,0,14.3,23a1.1,1.1,0,0,1,.2.31.15.15,0,0,1-.09,0,2.1,2.1,0,0,1-1.13-1.12,1,1,0,0,1,0-.66c.09-.29.19-.58.28-.87Z" style="fill:#fff"/><path d="M15.77,17.32a.87.87,0,0,1,.85-.65,1.79,1.79,0,0,1,.18.74l-.1,0-.41-.09a2.08,2.08,0,0,0-.25,0Z" style="fill:#fff"/><path d="M22.23,17.32a2.24,2.24,0,0,0-1,.09,1.51,1.51,0,0,1,.15-.74A.82.82,0,0,1,22.23,17.32Z" style="fill:#fff"/><path d="M21.46,18.51a1.1,1.1,0,0,0,.55-.09l.45-.33a.9.9,0,0,1-.12.61.38.38,0,0,1-.34.18A.55.55,0,0,1,21.46,18.51Z" style="fill:#fff"/><path d="M15.55,18.11a1.66,1.66,0,0,1,.24.17.69.69,0,0,0,.55.2h.23a.64.64,0,0,1-.4.39.4.4,0,0,1-.53-.25A1.36,1.36,0,0,1,15.55,18.11Z" style="fill:#fff"/><path d="M21.48,17.7l.15.29c.2,0,.2,0,.27-.16l.07-.21.3,0,0,.11a.73.73,0,0,1-.67.42.66.66,0,0,1-.32-.14s0-.07,0-.12A.34.34,0,0,1,21.48,17.7Z" style="fill:#fff"/><path d="M15.72,17.65H16a6343452772507.66,6343452772507.66,0,0,0,.12.28c.07.1.16.11.23,0a2.2,2.2,0,0,0,.15-.26.33.33,0,0,1,.3.32.73.73,0,0,1-.64.14A.63.63,0,0,1,15.72,17.65Z" style="fill:#fff"/><path d="M18.13,21.85l-.07-.18a.75.75,0,0,0-.3-.36.44.44,0,0,1-.22-.19,3,3,0,0,1,.83-.07c.27,0,.36.22.25.46A.67.67,0,0,1,18.13,21.85Z"/><path d="M20.71,21.15a.87.87,0,0,1-.11.09.91.91,0,0,0-.46.57s0,0,0,0a.21.21,0,0,1-.08,0,.73.73,0,0,1-.39-.32.29.29,0,0,1,0-.13.25.25,0,0,1,.22-.33,1.79,1.79,0,0,1,.4,0c.16,0,.32,0,.47.06Z"/><path d="M39.21,23.57V21.85l1.52-.3V11.27L39.21,11V9.25H46a6.35,6.35,0,0,1,2.83.58,4.27,4.27,0,0,1,1.83,1.6,4.38,4.38,0,0,1,.64,2.39,4.21,4.21,0,0,1-2.47,4,6.64,6.64,0,0,1-2.83.56H43.61v3.17l1.53.3v1.72Zm4.4-7.41H46a2.2,2.2,0,0,0,2.43-2.32,2.4,2.4,0,0,0-.62-1.7A2.32,2.32,0,0,0,46,11.46H43.61Zm13.65,7.62a5.07,5.07,0,0,1-2.7-.69,4.53,4.53,0,0,1-1.74-1.91,6.35,6.35,0,0,1-.6-2.82v-.21a6.24,6.24,0,0,1,.6-2.8,4.54,4.54,0,0,1,1.73-1.92,5.56,5.56,0,0,1,5.4,0,4.49,4.49,0,0,1,1.72,1.91,6.28,6.28,0,0,1,.6,2.81v.21a6.35,6.35,0,0,1-.6,2.82A4.55,4.55,0,0,1,60,23.09,5.05,5.05,0,0,1,57.26,23.78Zm0-2.21a1.79,1.79,0,0,0,1.22-.4,2.32,2.32,0,0,0,.7-1.12,5.76,5.76,0,0,0,.23-1.69v-.21a5.55,5.55,0,0,0-.23-1.66,2.27,2.27,0,0,0-.71-1.13,1.77,1.77,0,0,0-1.23-.42,1.79,1.79,0,0,0-1.22.42,2.27,2.27,0,0,0-.71,1.13,5.93,5.93,0,0,0-.21,1.66v.21a6.15,6.15,0,0,0,.21,1.69A2.36,2.36,0,0,0,56,21.18,1.92,1.92,0,0,0,57.26,21.57Zm6.51,2V21.85l1.38-.3V15l-1.52-.29V12.93h4.2l.11,1.31,0,.24a3.3,3.3,0,0,1,1-1.31,2.26,2.26,0,0,1,1.39-.44,4,4,0,0,1,.56,0,2.71,2.71,0,0,1,.54.11l-.31,2.64-1.42-.08a1.71,1.71,0,0,0-1,.21,2.29,2.29,0,0,0-.67.68v5.21l1.38.3v1.72Zm7.85,0V21.85l1.39-.3V10.25L71.48,10V8.22h4.39V21.55l1.24.3v1.72Zm6.78,0V21.94l.81-.19,0,0-2.11-2.86L78.91,17l3.5,4.57,1.32.31v1.72Zm-2.83-2.91-1.38-1.61,4.63-4.23,0,0-1.1-.15V12.93h5.54v1.73L81.91,15Zm13.72,3.12a5.23,5.23,0,0,1-2.66-.67,4.66,4.66,0,0,1-1.77-1.86,5.66,5.66,0,0,1-.62-2.7v-.39a6.23,6.23,0,0,1,.59-2.8,4.54,4.54,0,0,1,1.66-1.93,4.48,4.48,0,0,1,2.55-.7,4.8,4.8,0,0,1,2.43.57A3.71,3.71,0,0,1,93,14.94a6,6,0,0,1,.51,2.6V19.1H87.22l0,.06a3.3,3.3,0,0,0,.34,1.25,2.21,2.21,0,0,0,.83.86,2.56,2.56,0,0,0,1.29.3,5.26,5.26,0,0,0,1.46-.19,5.92,5.92,0,0,0,1.34-.6l.78,1.77a5.65,5.65,0,0,1-1.66.88A7,7,0,0,1,89.29,23.78Zm-2.05-6.57h3.55V17a3.07,3.07,0,0,0-.18-1.11,1.36,1.36,0,0,0-.55-.73,1.68,1.68,0,0,0-1-.26,1.58,1.58,0,0,0-1,.31,2,2,0,0,0-.62.82,4.43,4.43,0,0,0-.29,1.18ZM95,23.57V21.85l1.38-.3V15l-1.53-.29V12.93h4.2l.11,1.31,0,.24a3.4,3.4,0,0,1,1-1.31,2.26,2.26,0,0,1,1.39-.44,3.87,3.87,0,0,1,.56,0,2.44,2.44,0,0,1,.54.11l-.3,2.64-1.43-.08a1.66,1.66,0,0,0-1,.21,2.29,2.29,0,0,0-.67.68v5.21l1.38.3v1.72Zm13.37,0V21.85l1.52-.3V11.27L108.39,11V9.25h5.93V11l-1.53.29V15.4h5.84V11.27L117.09,11V9.25H123V11l-1.54.29V21.55l1.54.3v1.72h-5.94V21.85l1.54-.3V17.62h-5.84v3.93l1.53.3v1.72Zm20.32.21a3.38,3.38,0,0,1-2.64-1.07,4.86,4.86,0,0,1-1-3.32V15l-1.17-.29V12.93h4v6.48a2.69,2.69,0,0,0,.39,1.64,1.46,1.46,0,0,0,1.21.49,2.54,2.54,0,0,0,1.13-.24,2.16,2.16,0,0,0,.81-.72V15l-1.27-.29V12.93h4.14v8.62l1.28.3v1.72h-3.8l-.2-1.35a3.43,3.43,0,0,1-1.25,1.15A3.61,3.61,0,0,1,128.71,23.78Zm12.22,0a3.1,3.1,0,0,1-2.29-.82,3.6,3.6,0,0,1-.8-2.59V14.94h-1.46v-2h1.46V10.32h2.87v2.61h1.95v2h-1.95v5.42a1.26,1.26,0,0,0,.25.89,1,1,0,0,0,.72.26l.51,0,.47-.07.25,2.07a6.76,6.76,0,0,1-1,.21A6,6,0,0,1,140.93,23.78Z" style="fill:#fff"/></svg>