<svg xmlns="http://www.w3.org/2000/svg" viewBox="0 0 150.08 32"><path d="M15.28,27c-1.12,0-2.09,0-3.06,0-.21,0-.45-.31-.58-.54q-2.21-3.86-4.37-7.74A1.05,1.05,0,0,0,6.15,18c-.83.06-1.67,0-2.57,0v8.9H.79V10H3.53v5.68a3.9,3.9,0,0,0,.52.08c1.58,0,3.16,0,4.73-.13,2.08-.2,3.28-1.71,3.31-3.94s-1-3.77-3.19-4.07a35.57,35.57,0,0,0-3.73-.13c-.52,0-1,0-1.6,0V5.07c2.64.17,5.31-.42,7.86.75A6,6,0,0,1,15,11.69a6.12,6.12,0,0,1-3.82,5.73c-.38.15-.77.28-1.21.44Z" style="fill:#fff"/><path d="M19.74,27H17.08V10.16h2.66Z" style="fill:#fff"/><path d="M17.05,5h2.7V7.38h-2.7Z" style="fill:#fff"/><path d="M37.42,27a8.77,8.77,0,0,1-3.81-.79A6.09,6.09,0,0,1,31,24a6.46,6.46,0,0,1-1-3.46h3.58a3.55,3.55,0,0,0,.47,1.82,3.31,3.31,0,0,0,1.3,1.27,4,4,0,0,0,2,.46,4.37,4.37,0,0,0,1.77-.33,2.73,2.73,0,0,0,1.15-1,2.58,2.58,0,0,0,.41-1.47,2.66,2.66,0,0,0-.44-1.59,3.78,3.78,0,0,0-1.2-1.06,10.44,10.44,0,0,0-1.74-.77l-2.09-.71a8.56,8.56,0,0,1-3.53-2.08,4.74,4.74,0,0,1-1.18-3.38,5.32,5.32,0,0,1,3.12-5,7.86,7.86,0,0,1,3.42-.71,7.7,7.7,0,0,1,3.46.73,5.9,5.9,0,0,1,2.34,2,5.64,5.64,0,0,1,.89,3.09H40.19a3.06,3.06,0,0,0-.4-1.41,3,3,0,0,0-1-1.07,3.22,3.22,0,0,0-1.68-.42,3.31,3.31,0,0,0-1.51.27,2.58,2.58,0,0,0-1,.87,2.51,2.51,0,0,0-.38,1.41,2.39,2.39,0,0,0,.36,1.36,2.78,2.78,0,0,0,1,.9,10.84,10.84,0,0,0,1.58.68l2,.7a13.82,13.82,0,0,1,2.66,1.2,5.55,5.55,0,0,1,1.91,1.85,5.52,5.52,0,0,1,.7,2.94A5.67,5.67,0,0,1,43.54,24a5.73,5.73,0,0,1-2.31,2.18A7.9,7.9,0,0,1,37.42,27Z" style="fill:#fff"/><path d="M54.15,27a7,7,0,0,1-3.65-1A6.82,6.82,0,0,1,48,23.3a8.34,8.34,0,0,1-.92-4,8.34,8.34,0,0,1,.93-4,6.87,6.87,0,0,1,2.55-2.71,7.37,7.37,0,0,1,7.31,0,6.85,6.85,0,0,1,2.54,2.69,8.39,8.39,0,0,1,.92,4,8.17,8.17,0,0,1-.94,4A6.89,6.89,0,0,1,54.15,27Zm0-3A3.4,3.4,0,0,0,56,23.46a3.73,3.73,0,0,0,1.34-1.57,5.89,5.89,0,0,0,.51-2.59,5.91,5.91,0,0,0-.5-2.57A3.52,3.52,0,0,0,56,15.18a3.44,3.44,0,0,0-3.67,0A3.58,3.58,0,0,0,51,16.73a5.77,5.77,0,0,0-.51,2.57A5.89,5.89,0,0,0,51,21.89a3.73,3.73,0,0,0,1.34,1.57A3.33,3.33,0,0,0,54.15,24Z" style="fill:#fff"/><path d="M63.26,14.91V12h8.63v2.93Zm2,11.72V10.38a5.74,5.74,0,0,1,.55-2.72,3.3,3.3,0,0,1,1.59-1.5,6.12,6.12,0,0,1,2.49-.46h1.69v3H70.42a1.87,1.87,0,0,0-1.34.4,1.83,1.83,0,0,0-.41,1.35V26.63Z" style="fill:#fff"/><path d="M81,26.63a6.11,6.11,0,0,1-2.49-.47,3.37,3.37,0,0,1-1.65-1.54,6,6,0,0,1-.6-2.91v-6.8H73.81V12h2.42l.4-3.87h3V12h3.86v2.93H79.62v6.8a2,2,0,0,0,.46,1.53,2.34,2.34,0,0,0,1.57.42H83.4v3Z" style="fill:#fff"/><path d="M89.49,26.63,85.31,12h3.36l2.91,12L91,24,94.2,12H98l3.27,12h-.62l2.91-12h3.35l-4.17,14.65h-3.5L95.75,14.22h.71L93,26.63Z" style="fill:#fff"/><path d="M113.38,27a6.26,6.26,0,0,1-2.9-.61,4.06,4.06,0,0,1-1.72-1.63,4.47,4.47,0,0,1-.57-2.21,4.17,4.17,0,0,1,.69-2.41,4.46,4.46,0,0,1,2.05-1.59,8.57,8.57,0,0,1,3.33-.57h3.58a5.17,5.17,0,0,0-.31-1.93,2.33,2.33,0,0,0-1-1.15,3.3,3.3,0,0,0-1.67-.37,3.58,3.58,0,0,0-2,.53,2.34,2.34,0,0,0-1,1.65h-3.33a5.28,5.28,0,0,1,1-2.69,5.64,5.64,0,0,1,2.25-1.75,7.46,7.46,0,0,1,3.05-.62,7.58,7.58,0,0,1,3.42.71,5,5,0,0,1,2.16,2,6.44,6.44,0,0,1,.74,3.18v9.07h-2.87L118,24.27a4.84,4.84,0,0,1-.72,1.08,5.16,5.16,0,0,1-1,.86,4.71,4.71,0,0,1-1.29.56A5.78,5.78,0,0,1,113.38,27Zm.76-2.77a3.4,3.4,0,0,0,1.46-.3,3.17,3.17,0,0,0,1.1-.87,4.31,4.31,0,0,0,.72-1.27,5.91,5.91,0,0,0,.33-1.48v-.06h-3.13a4.49,4.49,0,0,0-1.63.26,1.85,1.85,0,0,0-.93.72,1.93,1.93,0,0,0-.29,1.06,1.87,1.87,0,0,0,.29,1,1.74,1.74,0,0,0,.81.67A3.1,3.1,0,0,0,114.14,24.21Z" style="fill:#fff"/><path d="M124.83,26.63V12h3l.31,2.73a5.77,5.77,0,0,1,1.27-1.64A5.35,5.35,0,0,1,131.22,12a6.59,6.59,0,0,1,2.27-.38v3.69h-1.18a5.64,5.64,0,0,0-1.61.22,3.31,3.31,0,0,0-1.31.7,3.06,3.06,0,0,0-.86,1.3,6,6,0,0,0-.31,2.08v7Z" style="fill:#fff"/><path d="M142.38,27a7.26,7.26,0,0,1-3.73-.95,6.58,6.58,0,0,1-2.51-2.66,8.37,8.37,0,0,1-.9-3.95,8.88,8.88,0,0,1,.89-4.07,6.69,6.69,0,0,1,2.51-2.73,7.09,7.09,0,0,1,3.77-1,6.74,6.74,0,0,1,3.63,1,6.52,6.52,0,0,1,2.4,2.57,7.61,7.61,0,0,1,.85,3.62v.64a4.78,4.78,0,0,1-.06.73H137.67V17.91h8.2a3.4,3.4,0,0,0-1-2.52,3.48,3.48,0,0,0-2.45-.91,3.81,3.81,0,0,0-1.92.49,3.51,3.51,0,0,0-1.38,1.47,5.26,5.26,0,0,0-.51,2.45v.85a5.16,5.16,0,0,0,.49,2.35,3.49,3.49,0,0,0,1.36,1.5,3.71,3.71,0,0,0,1.93.51,3.51,3.51,0,0,0,2-.52,3.07,3.07,0,0,0,1.14-1.4h3.44a6.76,6.76,0,0,1-1.29,2.46,6.62,6.62,0,0,1-2.23,1.71A6.9,6.9,0,0,1,142.38,27Z" style="fill:#fff"/></svg>