<svg xmlns="http://www.w3.org/2000/svg" viewBox="0 0 126 32"><path d="M42.19.66H52.77V3.34H49.08v9.77H45.86V3.34H42.18Z" style="fill:#fff"/><path d="M61.49,13.11l-1.8-3.44H57.3v3.44H54.08V.66h5.54a5.73,5.73,0,0,1,3.8,1.14A4,4,0,0,1,64.76,5a5,5,0,0,1-.56,2.43A4,4,0,0,1,62.56,9l2.57,4.07Zm-4.19-6h2.35a2.13,2.13,0,0,0,1.53-.5,1.87,1.87,0,0,0,.42-.65,2,2,0,0,0,.12-.77,2,2,0,0,0-.12-.76,1.83,1.83,0,0,0-.42-.64,2.23,2.23,0,0,0-1.53-.49H57.31Z" style="fill:#fff"/><path d="M70.52,9.86a2.41,2.41,0,0,0,.8.54,2.34,2.34,0,0,0,.94.17,2.07,2.07,0,0,0,.92-.17,2.13,2.13,0,0,0,.76-.53A2.71,2.71,0,0,0,74.59,8V.66h3.22V8a5.67,5.67,0,0,1-.68,2.83,4.54,4.54,0,0,1-1.94,1.87,6.16,6.16,0,0,1-3,.66,6.35,6.35,0,0,1-3-.66,4.64,4.64,0,0,1-2-1.87A5.68,5.68,0,0,1,66.61,8V.66h3.21V8A2.64,2.64,0,0,0,70,9,2.54,2.54,0,0,0,70.52,9.86Z" style="fill:#fff"/><path d="M86.41,3.45a6,6,0,0,0-1.88-.37,1.72,1.72,0,0,0-.94.22.75.75,0,0,0-.26.27.73.73,0,0,0-.08.38,1,1,0,0,0,.07.37.87.87,0,0,0,.23.31,2.2,2.2,0,0,0,.74.44c.29.12.72.26,1.3.44a17.74,17.74,0,0,1,2.12.74,3.72,3.72,0,0,1,1.43,1.14,3.19,3.19,0,0,1,.6,2,3.43,3.43,0,0,1-.65,2.12,3.94,3.94,0,0,1-1.78,1.32,6.86,6.86,0,0,1-2.53.45,9.33,9.33,0,0,1-3-.54,8.41,8.41,0,0,1-2.64-1.49l1.25-2.54a7.93,7.93,0,0,0,2.21,1.37,6.12,6.12,0,0,0,2.26.53,2.1,2.1,0,0,0,1.13-.26.84.84,0,0,0,.32-.33.9.9,0,0,0,.1-.45,1,1,0,0,0-.31-.72,2.34,2.34,0,0,0-.78-.45C85,8.31,84.53,8.18,84,8a15.63,15.63,0,0,1-2.09-.72,3.61,3.61,0,0,1-1.41-1.1,3,3,0,0,1-.59-2,3.5,3.5,0,0,1,.6-2A3.93,3.93,0,0,1,82.2.87,6.8,6.8,0,0,1,84.8.41a9.47,9.47,0,0,1,2.64.38,8.71,8.71,0,0,1,2.29,1l-1.22,2.6A10.21,10.21,0,0,0,86.41,3.45Z" style="fill:#fff"/><path d="M90.31.66H100.9V3.34H97.19v9.77H94V3.34H90.3Z" style="fill:#fff"/><path d="M102.19.66h9.73V3.25h-6.5V5.58h5.88V8.14l-5.88,0v2.35h6.69v2.59h-9.92Z" style="fill:#fff"/><path d="M122.81,1.44a5.75,5.75,0,0,1,2.32,2.19A6.37,6.37,0,0,1,126,6.88a6.39,6.39,0,0,1-.85,3.25,5.69,5.69,0,0,1-2.36,2.2,7.55,7.55,0,0,1-3.49.78h-5.19V.66h5.32A7.27,7.27,0,0,1,122.81,1.44ZM121.13,10a3,3,0,0,0,1.13-1.26,4.14,4.14,0,0,0,.39-1.87A3.85,3.85,0,0,0,122.22,5,3.1,3.1,0,0,0,121,3.76a3.23,3.23,0,0,0-1.72-.45h-2v7.17h2.19A3.13,3.13,0,0,0,121.13,10Z" style="fill:#fff"/><path d="M42.25,18.81h9.58v1.56h-4V31.2H46.18V20.36h-4Z" style="fill:#fff"/><path d="M55.86,22.31a3.77,3.77,0,0,1,2-.54v1.6a2.89,2.89,0,0,0-1.2.13,2.8,2.8,0,0,0-1,.59,3.06,3.06,0,0,0-.74,1,2.85,2.85,0,0,0-.29,1.18v4.94H52.93V21.83h1.64v2A3.32,3.32,0,0,1,55.86,22.31Z" style="fill:#fff"/><path d="M65,31.18V29.87a3.78,3.78,0,0,1-3.24,1.37,3.58,3.58,0,0,1-1.7-.37,2.71,2.71,0,0,1-1.13-1,2.79,2.79,0,0,1-.39-1.47,2.37,2.37,0,0,1,.22-1.11,2.4,2.4,0,0,1,.7-.88A4.06,4.06,0,0,1,62,25.65H65V25.2a2,2,0,0,0-.13-.83,2.1,2.1,0,0,0-.47-.7,2.57,2.57,0,0,0-1.76-.54,5.09,5.09,0,0,0-2.86,1L59.08,23a8.51,8.51,0,0,1,1.85-.95,6.25,6.25,0,0,1,2-.28,3.85,3.85,0,0,1,2.68.85,3.11,3.11,0,0,1,1,2.4l0,6.15Zm-1-1.85a2.19,2.19,0,0,0,1-1.48v-.94H62.27a3.19,3.19,0,0,0-1.64.34,1.07,1.07,0,0,0-.41.46,1.12,1.12,0,0,0-.13.6,1.42,1.42,0,0,0,.14.64,1.24,1.24,0,0,0,.41.5,2.34,2.34,0,0,0,1.45.43A3.35,3.35,0,0,0,64,29.33Z" style="fill:#fff"/><path d="M77.35,22.74a3.74,3.74,0,0,1,.93,2.66v5.78H76.65V25.84a2.42,2.42,0,0,0-.12-1A2.22,2.22,0,0,0,76,24a2.25,2.25,0,0,0-.84-.54,2.32,2.32,0,0,0-1-.12,2.93,2.93,0,0,0-1.1.19,3,3,0,0,0-.93.61,3.19,3.19,0,0,0-.88,2v5H69.64V21.83h1.63v2a3.58,3.58,0,0,1,3.52-2A3.38,3.38,0,0,1,77.35,22.74Z" style="fill:#fff"/><path d="M85.1,23.33a4.63,4.63,0,0,0-1.33-.22,2.32,2.32,0,0,0-1.18.29,1,1,0,0,0-.34.36.92.92,0,0,0-.1.49.87.87,0,0,0,.13.5.81.81,0,0,0,.37.36,7.51,7.51,0,0,0,1.51.59,11,11,0,0,1,1.58.57,2.71,2.71,0,0,1,1,.81,2.57,2.57,0,0,1-.56,3.46,4.14,4.14,0,0,1-2.46.69,6.27,6.27,0,0,1-2-.33,4.57,4.57,0,0,1-1.63-1l.61-1.2a4.18,4.18,0,0,0,1.41.86,4.7,4.7,0,0,0,1.66.31,2.47,2.47,0,0,0,1.3-.3,1.07,1.07,0,0,0,.37-.39,1.05,1.05,0,0,0,.11-.53,1,1,0,0,0-.11-.55,1.07,1.07,0,0,0-.38-.41,6.94,6.94,0,0,0-1.57-.65A10.05,10.05,0,0,1,82,26.54a2.69,2.69,0,0,1-1-.8,2.2,2.2,0,0,1-.41-1.38,2.15,2.15,0,0,1,.22-1.11,2.12,2.12,0,0,1,.72-.85,4.08,4.08,0,0,1,2.37-.66,5.73,5.73,0,0,1,1.65.24,4.94,4.94,0,0,1,1.42.65l-.6,1.25A5.49,5.49,0,0,0,85.1,23.33Z" style="fill:#fff"/><path d="M91.86,19.81a1.4,1.4,0,0,0-.33.51,1.56,1.56,0,0,0-.09.61v1.21H94V23.4H91.44v7.78H89.81V23.4H88.6V22.14h1.21v-1a3.37,3.37,0,0,1,.42-1.76,2.77,2.77,0,0,1,1.13-1.07A3.16,3.16,0,0,1,92.87,18a3.64,3.64,0,0,1,1.61.42l-.39,1.35a2.75,2.75,0,0,0-1.19-.29A1.48,1.48,0,0,0,91.86,19.81Z" style="fill:#fff"/><path d="M102.39,23.06a5.25,5.25,0,0,1,1.11,3.56,3.8,3.8,0,0,1,0,.53H96.16a3.18,3.18,0,0,0,1,2,3,3,0,0,0,2.1.74,4,4,0,0,0,1.53-.28,3.75,3.75,0,0,0,1.23-.86l.89.94a4.8,4.8,0,0,1-1.64,1.14,5.42,5.42,0,0,1-2.14.4,4.77,4.77,0,0,1-2.42-.59A4.08,4.08,0,0,1,95.1,29a5.38,5.38,0,0,1,0-4.9,4.34,4.34,0,0,1,1.64-1.68,4.79,4.79,0,0,1,2.4-.61A4,4,0,0,1,102.39,23.06ZM102,25.87a2.93,2.93,0,0,0-.21-1.09,2.86,2.86,0,0,0-.63-.91,2.55,2.55,0,0,0-.94-.58,2.7,2.7,0,0,0-1.09-.16,2.9,2.9,0,0,0-2,.75,3.1,3.1,0,0,0-1,2Z" style="fill:#fff"/><path d="M108.77,22.31a3.8,3.8,0,0,1,2-.54v1.6a3.05,3.05,0,0,0-2.27.72,3,3,0,0,0-.74,1,3.2,3.2,0,0,0-.29,1.19v4.93h-1.63V21.83h1.63v2A3.4,3.4,0,0,1,108.77,22.31Z" style="fill:#fff"/><path d="M116.44,23.33a4.62,4.62,0,0,0-1.32-.22,2.36,2.36,0,0,0-1.19.29,1,1,0,0,0-.34.36.92.92,0,0,0-.1.49.87.87,0,0,0,.13.5.81.81,0,0,0,.37.36,7.51,7.51,0,0,0,1.51.59,11,11,0,0,1,1.58.57,2.78,2.78,0,0,1,1,.81,2.6,2.6,0,0,1,.4,1.84,2.57,2.57,0,0,1-1,1.62,4.14,4.14,0,0,1-2.46.69,6.23,6.23,0,0,1-2-.33,4.57,4.57,0,0,1-1.63-1l.61-1.2a4.17,4.17,0,0,0,1.43.86,4.6,4.6,0,0,0,1.65.31,2.47,2.47,0,0,0,1.3-.3,1.07,1.07,0,0,0,.37-.39,1,1,0,0,0,.12-.53,1.06,1.06,0,0,0-.12-.55,1.1,1.1,0,0,0-.39-.41,7,7,0,0,0-1.58-.65,10.46,10.46,0,0,1-1.51-.54,2.77,2.77,0,0,1-1-.8,2.2,2.2,0,0,1-.41-1.38,2.26,2.26,0,0,1,.22-1.11,2.07,2.07,0,0,1,.73-.85,4,4,0,0,1,2.36-.66,5.85,5.85,0,0,1,1.66.24,5,5,0,0,1,1.41.65l-.6,1.25A5.38,5.38,0,0,0,116.44,23.33Z" style="fill:#fff"/><path d="M123.54,31.14a2.28,2.28,0,1,0-2.27-2.28A2.27,2.27,0,0,0,123.54,31.14Z" style="fill:#fff"/><path d="M19.23,12.27V32h-.36a7,7,0,0,1-6.42-7.09v-5.7H7a6.9,6.9,0,0,1-4.86-2,7.06,7.06,0,0,1-2-4.9Z" style="fill:#fff"/><path d="M31.6,0V32A9.85,9.85,0,0,1,25,29.43,10.16,10.16,0,0,1,22.51,26a10.41,10.41,0,0,1-.83-4.16V9.9H10A10,10,0,0,1,3,7,10.12,10.12,0,0,1,0,0Z" style="fill:#fff"/></svg>